<?xml version="1.0" encoding="UTF-8"?>
<svg version="1.1" xmlns="http://www.w3.org/2000/svg" width="512" height="512">
<path d="M0 0 C1.48790052 0.22132481 2.9761681 0.44020032 4.46484375 0.65625 C23.79819463 3.60703568 42.77278044 8.97917276 61 16 C62.16426514 16.44400146 62.16426514 16.44400146 63.35205078 16.89697266 C92.90781828 28.31582585 129.15900889 46.49015429 149 72 C149.763125 72.598125 150.52625 73.19625 151.3125 73.8125 C154.27561989 76.22434177 156.5910119 78.84930126 159.05859375 81.75390625 C160.37033128 83.27151003 161.71829871 84.75842713 163.09765625 86.21484375 C194.97718576 120.00602054 205.10469485 165.12015665 204.13183594 210.14599609 C203.87497668 217.65484851 202.83791844 224.72758957 201 232 C200.70198486 233.22686523 200.70198486 233.22686523 200.39794922 234.47851562 C196.53294508 250.07749862 191.09951958 265.12871869 182.41015625 278.73046875 C180.89184932 281.17405967 179.61514206 283.68553941 178.3125 286.25 C173.3545376 295.45764447 166.48138456 303.73236928 159 311 C157.87339147 312.12338917 156.74851144 313.24851341 155.625 314.375 C148.375 321.625 148.375 321.625 146.62817383 323.37060547 C145.19059832 324.80925878 143.75709428 326.25197802 142.32421875 327.6953125 C135.72125041 334.24279371 128.72652496 339.83694828 121 345 C120.13117188 345.58394531 119.26234375 346.16789062 118.3671875 346.76953125 C116.24944131 348.1868943 114.12738346 349.59716018 112 351 C115.34887351 366.85831488 115.34887351 366.85831488 120.796875 382.05859375 C122.79882898 386.50362569 124.65629902 390.99831474 126.49975586 395.51098633 C136.41442197 419.7100513 148.33201497 446.60982496 166.2265625 466.05859375 C168.37829668 468.41412654 170.4143685 470.84569931 172.4375 473.3125 C173.11683594 474.13363281 173.79617188 474.95476562 174.49609375 475.80078125 C176 478 176 478 176 481 C157.97567788 480.58171404 140.65411485 474.77623655 123.6875 469.1875 C122.93694336 468.943414 122.18638672 468.699328 121.41308594 468.44784546 C107.6699873 463.95388375 93.84164844 458.79496016 82 450.33984375 C79.91772444 448.9448818 77.83716216 447.92395738 75.5625 446.875 C53.90787765 436.31585752 23.71183982 414.85306637 11.125 393.875 C9.19809331 391.76219935 9.19809331 391.76219935 6.8059082 391.98071289 C5.47305786 392.13141235 5.47305786 392.13141235 4.11328125 392.28515625 C3.12038086 392.3934375 2.12748047 392.50171875 1.10449219 392.61328125 C-1.81692039 392.97719424 -4.73481016 393.36021497 -7.65234375 393.75390625 C-69.39070714 401.93400334 -135.61575117 394.15474176 -191.11181641 364.99121094 C-192.9891993 364.00566988 -194.87465249 363.03715789 -196.76171875 362.0703125 C-217.37738786 351.41018827 -238.74904257 338.37016725 -253.80078125 320.44140625 C-256.20532153 317.77206757 -258.74897108 315.29939167 -261.33032227 312.80273438 C-282.02448575 292.67696582 -295.57418491 266.49058359 -303.3125 238.8125 C-303.55532715 237.94625 -303.7981543 237.08 -304.04833984 236.1875 C-307.62370105 222.68564055 -308.41056736 209.32200258 -308.375 195.4375 C-308.37412384 194.59961945 -308.37324768 193.76173889 -308.37234497 192.89846802 C-308.32755286 179.89527036 -307.64582043 167.55753883 -304 155 C-303.75330566 154.13181641 -303.50661133 153.26363281 -303.25244141 152.36914062 C-299.71893174 140.24805282 -295.04798369 129.06148054 -289 118 C-288.26935849 116.62639396 -287.53889271 115.25269444 -286.80859375 113.87890625 C-282.19582837 105.32973995 -277.08357082 97.59573947 -271 90 C-270.30132812 89.1028125 -269.60265625 88.205625 -268.8828125 87.28125 C-267 85 -267 85 -264.6875 83.1875 C-262.43860545 81.35700444 -260.79615062 79.68797463 -258.9375 77.5 C-243.79260597 59.95527265 -226.01394917 47.47493986 -206 36 C-204.61413293 35.1895718 -203.22868999 34.37841773 -201.84375 33.56640625 C-179.63615629 20.66794515 -156.59591056 11.67901929 -131.65869141 5.64794922 C-129.33211725 5.08094024 -127.01565689 4.4856055 -124.69921875 3.87890625 C-85.21748944 -6.12338526 -39.99679133 -6.79694613 0 0 Z " fill="#8BC9F7" transform="translate(308,17)"/>
</svg>
